<svg width="340" height="204" viewBox="0 0 340 204" fill="none" xmlns="http://www.w3.org/2000/svg">
<path d="M89.1765 145.326V148.93C88.119 148.529 87.093 148.112 86.093 147.68C85.093 147.253 83.989 146.878 82.7805 146.555C81.5825 146.222 80.145 146.045 78.468 146.013V177.451H74.9055V146.013C73.2235 146.045 71.7805 146.222 70.5725 146.555C69.3745 146.878 68.286 147.253 67.3015 147.68C66.312 148.112 65.2805 148.529 64.1975 148.93V145.326H89.1765Z" fill="black"/>
<path d="M92.9714 145.326H108.471C110.013 145.326 111.451 145.67 112.784 146.347C114.117 147.013 115.19 147.961 116.013 149.18C116.846 150.404 117.263 151.888 117.263 153.638C117.263 155.503 116.805 157.045 115.888 158.263C114.971 159.487 113.774 160.404 112.305 161.013C110.831 161.612 109.242 161.909 107.534 161.909C108.211 162.217 108.784 162.717 109.242 163.409C110.128 164.576 110.919 165.847 111.617 167.222C112.326 168.586 112.997 169.941 113.638 171.284C114.274 172.633 114.93 173.847 115.596 174.93C115.789 175.237 116.096 175.68 116.513 176.263C116.93 176.836 117.305 177.232 117.638 177.451H114.346C113.747 177.451 113.305 177.362 113.013 177.18C112.732 176.987 112.492 176.722 112.284 176.388C111.201 174.388 110.206 172.446 109.305 170.555C108.414 168.67 107.326 166.722 106.034 164.722C104.242 161.987 102.128 161.618 99.7009 163.618L99.3464 163.222C100.149 162.545 100.93 162.076 101.68 161.826C102.44 161.566 103.232 161.409 104.055 161.368C104.888 161.326 105.774 161.279 106.721 161.222C109.096 161.071 110.846 160.316 111.971 158.951C113.096 157.576 113.659 155.805 113.659 153.638C113.659 152.128 113.289 150.8 112.555 149.659C111.831 148.508 110.893 147.612 109.742 146.972C108.586 146.336 107.352 146.013 106.034 146.013H96.5339V177.451H92.9714V145.326Z" fill="black"/>
<path d="M134.904 164.138V177.451H131.341V164.138L120.633 145.326H124.737L134.821 162.972C136.498 160.003 137.946 157.008 139.154 153.993C140.373 150.982 141.341 148.092 142.05 145.326H145.612L134.904 164.138Z" fill="black"/>
<path d="M163.706 145.326C165.857 145.326 167.873 145.743 169.748 146.576C171.634 147.399 173.295 148.545 174.727 150.013C176.154 151.487 177.269 153.196 178.061 155.138C178.863 157.086 179.269 159.17 179.269 161.388C179.269 163.612 178.863 165.696 178.061 167.638C177.269 169.586 176.154 171.295 174.727 172.763C173.295 174.237 171.634 175.388 169.748 176.222C167.873 177.045 165.857 177.451 163.706 177.451C161.566 177.451 159.55 177.045 157.665 176.222C155.79 175.388 154.144 174.237 152.727 172.763C151.311 171.295 150.191 169.586 149.373 167.638C148.566 165.696 148.165 163.612 148.165 161.388C148.165 159.17 148.566 157.086 149.373 155.138C150.191 153.196 151.311 151.487 152.727 150.013C154.144 148.545 155.79 147.399 157.665 146.576C159.55 145.743 161.566 145.326 163.706 145.326ZM163.706 146.013C162.05 146.013 160.503 146.42 159.061 147.222C157.613 148.013 156.342 149.118 155.248 150.534C154.149 151.951 153.29 153.592 152.665 155.451C152.04 157.3 151.727 159.279 151.727 161.388C151.727 163.529 152.04 165.529 152.665 167.388C153.29 169.237 154.149 170.868 155.248 172.284C156.342 173.701 157.613 174.816 159.061 175.618C160.503 176.409 162.05 176.805 163.706 176.805C165.373 176.805 166.925 176.409 168.373 175.618C169.831 174.816 171.107 173.701 172.206 172.284C173.316 170.868 174.175 169.237 174.79 167.388C175.399 165.529 175.706 163.529 175.706 161.388C175.706 159.279 175.399 157.3 174.79 155.451C174.175 153.592 173.316 151.951 172.206 150.534C171.107 149.118 169.831 148.013 168.373 147.222C166.925 146.42 165.373 146.013 163.706 146.013Z" fill="black"/>
<path d="M208.084 177.451H207.439C207.407 176.05 206.965 174.472 206.105 172.722C205.241 170.961 204.105 169.097 202.689 167.138C201.282 165.17 199.73 163.175 198.022 161.159C196.324 159.149 194.59 157.196 192.814 155.305C191.048 153.42 189.376 151.675 187.793 150.076C186.209 148.482 184.86 147.128 183.751 146.013C183.777 149.753 183.881 153.066 184.064 155.951C184.256 158.842 184.491 161.472 184.772 163.847C185.064 166.211 185.376 168.482 185.709 170.659C186.053 172.842 186.376 175.107 186.668 177.451H183.105V145.326H187.855C189.991 147.493 192.199 149.758 194.48 152.118C196.772 154.467 199.006 156.899 201.189 159.409C203.381 161.925 205.36 164.529 207.126 167.222C206.959 164.222 206.72 161.524 206.418 159.118C206.126 156.717 205.814 154.409 205.48 152.201C205.157 149.993 204.84 147.701 204.522 145.326H208.084V177.451Z" fill="black"/>
<path d="M211.879 145.326H234.796V148.93C233.364 148.612 231.973 148.284 230.629 147.951C229.296 147.607 227.9 147.295 226.442 147.013C224.983 146.722 223.358 146.487 221.567 146.305C219.785 146.112 217.744 146.013 215.442 146.013V159.159C216.176 158.243 217.072 157.618 218.129 157.284C219.181 156.941 220.239 156.878 221.296 157.097C222.015 157.253 222.718 157.487 223.4 157.805C224.077 158.112 224.759 158.42 225.442 158.722C226.134 159.013 226.858 159.217 227.608 159.326C228.259 159.451 228.921 159.446 229.587 159.305C230.254 159.154 230.676 158.633 230.858 157.743C231.192 159.284 231.077 160.482 230.525 161.326C229.968 162.175 229.16 162.67 228.108 162.805C227.077 162.92 226.098 162.779 225.171 162.388C224.254 161.987 223.364 161.493 222.504 160.909C221.64 160.316 220.796 159.816 219.962 159.409C219.14 158.993 218.317 158.826 217.483 158.909C216.968 158.967 216.494 159.154 216.067 159.472C215.65 159.779 215.442 160.243 215.442 160.868V177.451H211.879V145.326Z" fill="black"/>
<path d="M238.513 177.451V145.326H242.076V177.451H238.513Z" fill="black"/>
<path d="M270.899 145.326V148.93C269.842 148.529 268.816 148.112 267.816 147.68C266.816 147.253 265.712 146.878 264.504 146.555C263.306 146.222 261.868 146.045 260.191 146.013V177.451H256.629V146.013C254.946 146.045 253.504 146.222 252.295 146.555C251.097 146.878 250.009 147.253 249.024 147.68C248.035 148.112 247.004 148.529 245.92 148.93V145.326H270.899Z" fill="black"/>
<mask id="mask0_2502_2813" style="mask-type:luminance" maskUnits="userSpaceOnUse" x="0" y="0" width="340" height="142">
<path d="M0 0H340V141.458H0V0Z" fill="white"/>
</mask>
<g mask="url(#mask0_2502_2813)">
<path d="M334.078 154.312C328.422 145.865 316.339 140.115 309.505 134.151C301.531 132.349 294.641 128.354 287.729 125.187C280.427 121.843 273.219 119.114 265.948 116.229C243.865 107.453 222.818 97.5205 207.875 82.0625C202.703 76.7135 198.203 70.135 195.031 64.1405C193.109 60.505 191.625 54.01 188.886 52.38C184.229 49.609 175.646 52.099 171.016 50.1405C175.349 34.651 158.412 29.083 159.292 16.5365C160.146 4.41649 174.172 4.68749 179.953 11.5C181.833 13.7135 182.964 19.6975 188.328 17.656C190.182 14.484 186.344 10.984 184.422 8.69749C182.021 5.84349 179.109 2.97399 175.484 1.97899C166.188 -0.583509 155.255 4.5415 154.266 15.4165C152.807 31.432 168.594 32.276 166.552 50.1405C159.526 51.974 150.958 49.7445 147.005 52.38C144.578 54 140.984 64.1145 138.63 68.0625C135.495 73.3225 131.287 79.109 128.021 82.625C110.724 101.218 83.943 108.572 58.7765 119.588C49.761 123.536 40.6095 128.24 31.412 133.031C19.011 139.49 5.30248 145.776 1.26098 158.234C0.17198 161.578 -1.53102 169.88 2.93248 173.917C9.36498 175.667 15.4015 166.537 22.4795 164.953C25.9795 164.167 32.386 164.953 38.115 164.953H57.6565C119.302 164.953 204.766 165.51 279.349 165.51C292.115 165.51 306.604 163.995 316.208 166.073C323.214 167.589 327.891 176.448 336.313 175.594C341.417 168.609 337.625 159.609 334.073 154.312H334.078ZM183.859 13.177C180.703 9.25 178.057 4.807 171.573 4.2185C177.656 2.979 181.828 8.4945 183.859 13.177ZM166.547 3.656C167.714 3.3435 170.818 3.3955 171.016 3.656C171.568 4.3905 168.172 3.9895 167.667 4.2185C165.641 5.13 159.958 7.682 158.172 10.38C160.052 6.609 164.328 4.255 166.547 3.656ZM157.057 11.5C159.307 11.7185 156.641 15.651 156.5 17.099C159.578 29.109 170.516 35.6615 169.344 50.1405C166.594 47.682 168.234 45.854 167.667 42.859C165.531 31.6195 152.568 26.208 157.057 11.5ZM188.328 54.0625C195.094 67.26 200.781 78.635 211.224 88.224C227.714 103.364 256.167 112.88 279.354 122.947C290.042 127.588 297.662 131.724 308.391 135.828C317.891 143.104 329.818 147.943 333.521 161.031C309.255 125.25 243.99 121.104 211.224 92.703C200.521 83.427 194.094 72.234 187.214 57.984C177.917 54.776 163.094 52.6195 153.151 56.302C147.026 58.5675 147.021 64.526 143.099 68.625C140.839 67.781 144.74 64.109 145.333 62.4635C143.599 47.1455 175.073 51.453 188.328 54.0625ZM15.7765 143.109C54.2035 116.578 117.792 110.479 140.865 67.505C142.651 69.859 139.354 72.354 138.073 74.781C140.599 74.333 140.922 71.6715 141.979 69.7445C131.677 94.578 106.823 104.401 79.995 115.666C67.672 120.843 55.042 126.396 42.021 132.469C27.0575 139.448 10.1255 146.526 4.05248 161.589C3.76098 153.49 10.2505 146.927 15.7765 143.109ZM12.4275 167.75C12.1095 168.75 10.8755 167.833 11.87 167.75C43.5995 150.104 74.547 131.671 106.802 114.546C75.865 132.807 44.3075 150.442 12.4275 167.75ZM167.667 82.625C172.886 83.901 174.891 84.5935 182.026 89.3175C187.495 92.927 191.906 95.609 196.703 98.307C231.448 117.817 268.474 137.62 302.245 158.792C272.771 157.797 235.625 158.714 204.599 158.865L186.568 158.719C144.031 157.599 92.4795 158.005 35.318 157.672C78.667 131.885 124.094 108.187 167.662 82.625H167.667ZM107.359 114.546C111.979 111.343 116.88 108.416 122.438 106.145C120.547 107.656 112.136 112.208 107.359 114.546ZM123.552 105.583C127.87 102.26 132.906 99.656 138.073 97.182C133.74 100.494 128.62 103.015 123.552 105.583ZM30.297 162.708C32.9065 163.01 41.292 160.552 44.2555 163.271C40.688 162.62 32.3595 164.146 30.297 162.708ZM44.813 162.151C52.2295 162.526 55.5265 162.401 61.568 162.708C57.438 163.302 48.0265 164.349 44.813 162.151ZM62.6825 162.708H66.037C107.891 162.344 152.63 163.474 195.589 162.151C152.573 161.87 92.891 162.365 30.297 161.031C34.4325 158.125 46.2345 158.552 55.4275 158.792C82.068 159.49 120.245 159.666 157.037 159.286L157.375 159.443L224.724 160L224.625 159.828C243.688 160.125 262.38 160.083 278.792 159.911C288.339 159.812 298.547 158.667 307.271 161.589C265.573 162.755 232.932 161.427 196.146 162.151C236.646 163.62 279.557 162.026 310.063 163.271C218.115 164.135 142.188 164.297 62.6825 162.708ZM334.636 172.792C288.99 147.068 243.828 120.864 198.38 94.9425H194.474C186.729 89.2705 177.448 85.135 168.787 80.385C159.422 84.9945 150.833 90.38 141.979 95.505C128.307 98.755 115.261 108.317 103.448 115.109C70.1565 134.244 36.136 152.167 2.93248 170.552C8.18798 146.037 35.3755 135.52 57.0995 126.307C74.792 118.807 92.8285 112.276 107.917 104.468C109.177 105.77 104.594 105.958 104.568 107.828C118.573 100.036 133.531 88.0465 143.099 71.4215C145.646 66.9945 149.37 57.8175 153.708 57.4215C160.057 56.8435 162.995 64.4215 169.344 65.26C168.688 62.932 165.771 62.875 164.318 61.3435C167.589 61.0625 171.24 65.2185 174.927 66.385C171.969 62.4425 166.724 60.7915 162.083 58.5415C161.698 60.0465 163.24 59.625 163.761 60.224C161.891 61.1405 159.578 57.708 157.057 57.4215C166.359 54.6195 179.141 55.25 186.656 59.104C191.25 68.734 195.552 77.427 201.729 84.8645C227.229 115.552 279.458 119.182 311.182 143.672H313.974C320.557 149.943 328.781 154.583 332.401 163.833C329.995 163.443 328.974 161.672 326.818 161.031C329.349 164.891 336.63 166.167 334.636 172.792Z" fill="black"/>
</g>
<mask id="mask1_2502_2813" style="mask-type:luminance" maskUnits="userSpaceOnUse" x="271" y="107" width="70" height="70">
<path d="M271.537 107.307H340V176H271.537V107.307Z" fill="white"/>
</mask>
<g mask="url(#mask1_2502_2813)">
<path d="M334.053 154.615C328.397 146.167 316.314 140.417 309.486 134.454C301.506 132.651 294.616 128.657 287.704 125.49C280.408 122.146 273.194 119.417 265.923 116.532C243.84 107.756 222.793 97.8234 207.85 82.3649C202.678 77.0159 198.178 70.4379 195.006 64.4434C193.085 60.8079 191.6 54.3129 188.866 52.6829C184.204 49.9119 175.621 52.4069 170.996 50.4434C175.324 34.9534 158.387 29.3859 159.267 16.8389C160.121 4.71943 174.147 4.98993 179.928 11.8024C181.809 14.0159 182.939 20.0004 188.303 17.9589C190.158 14.7869 186.319 11.2869 184.397 9.00043C181.996 6.14643 179.09 3.27642 175.46 2.28192C166.163 -0.275579 155.23 4.84442 154.241 15.7194C152.783 31.7349 168.574 32.5784 166.527 50.4434C159.501 52.2764 150.934 50.0474 146.98 52.6829C144.553 54.3024 140.96 64.4174 138.605 68.3649C135.47 73.6254 131.262 79.4119 127.996 82.9274C110.699 101.521 83.9175 108.875 58.751 119.891C49.7355 123.839 40.5845 128.542 31.3915 133.334C18.9855 139.792 5.27702 146.078 1.23552 158.537C0.147025 161.881 -1.55647 170.183 2.90703 174.219C9.33953 175.969 15.376 166.839 22.454 165.256C25.954 164.474 32.3605 165.256 38.0895 165.256H57.6365C119.277 165.256 204.746 165.813 279.329 165.813C292.095 165.813 306.585 164.297 316.184 166.375C323.189 167.891 327.871 176.75 336.288 175.896C341.392 168.912 337.6 159.917 334.053 154.615ZM183.84 13.4799C180.678 9.55242 178.038 5.10992 171.553 4.52142C177.631 3.28192 181.803 8.79742 183.84 13.4799ZM166.527 3.95892C167.689 3.64642 170.793 3.69842 170.991 3.95892C171.543 4.69342 168.147 4.29242 167.642 4.52142C165.616 5.43292 159.934 7.98492 158.147 10.6829C160.027 6.91192 164.303 4.55792 166.527 3.95892ZM157.033 11.8024C159.283 12.0214 156.616 15.9534 156.475 17.4014C159.553 29.4119 170.491 35.9694 169.319 50.4434C166.569 47.9849 168.21 46.1569 167.642 43.1619C165.506 31.9224 152.543 26.5109 157.033 11.8024ZM188.303 54.3649C195.069 67.5629 200.756 78.9379 211.199 88.5264C227.689 103.667 256.142 113.183 279.329 123.25C290.017 127.891 297.642 132.026 308.366 136.131C317.866 143.407 329.793 148.25 333.496 161.334C309.23 125.552 243.965 121.407 211.199 93.0059C200.496 83.7299 194.069 72.5369 187.189 58.2869C177.897 55.0784 163.069 52.9224 153.126 56.6049C147.001 58.8704 146.996 64.8284 143.074 68.9274C140.814 68.0839 144.72 64.4119 145.309 62.7659C143.574 47.4484 175.048 51.7559 188.303 54.3649ZM15.751 143.412C54.1835 116.881 117.767 110.782 140.84 67.8079C142.626 70.1619 139.329 72.6569 138.048 75.0839C140.574 74.6359 140.902 71.9744 141.954 70.0474C131.658 94.8809 106.803 104.703 79.9695 115.969C67.652 121.146 55.0165 126.698 42.001 132.771C27.032 139.75 10.105 146.829 4.02703 161.891C3.74053 153.792 10.225 147.23 15.751 143.412ZM12.402 168.052C12.0895 169.052 10.85 168.136 11.8445 168.052C43.579 150.407 74.527 131.974 106.777 114.849C75.8395 133.11 44.282 150.745 12.402 168.052ZM167.642 82.9274C172.861 84.2034 174.871 84.9014 182.001 89.6204C187.47 93.2299 191.881 95.9119 196.678 98.6099C231.423 118.12 268.449 137.922 302.225 159.094C272.746 158.099 235.605 159.016 204.574 159.167L186.543 159.021C144.012 157.901 92.454 158.308 35.2925 157.974C78.647 132.188 124.069 108.49 167.642 82.9274ZM107.335 114.849C111.96 111.646 116.861 108.719 122.413 106.448C120.522 107.959 112.111 112.511 107.335 114.849ZM123.527 105.886C127.845 102.563 132.881 99.9589 138.048 97.4849C133.715 100.797 128.595 103.318 123.527 105.886ZM30.272 163.016C32.8865 163.313 41.2665 160.855 44.2355 163.573C40.6675 162.922 32.3345 164.448 30.272 163.016ZM44.7925 162.454C52.2095 162.829 55.501 162.704 61.5425 163.016C57.4125 163.605 48.001 164.651 44.7925 162.454ZM62.6625 163.016H66.0115C107.866 162.646 152.611 163.776 195.564 162.454C152.553 162.172 92.8655 162.667 30.272 161.334C34.4125 158.427 46.2095 158.855 55.402 159.094C82.0425 159.792 120.22 159.969 157.017 159.589L157.35 159.745L224.699 160.302L224.6 160.131C243.663 160.433 262.355 160.386 278.767 160.214C288.314 160.115 298.522 158.969 307.251 161.891C265.548 163.058 232.907 161.73 196.121 162.454C236.621 163.922 279.533 162.328 310.038 163.573C218.09 164.438 142.163 164.599 62.657 163.016H62.6625ZM334.611 173.094C288.97 147.37 243.803 121.167 198.355 95.2454H194.449C186.704 89.5734 177.423 85.4379 168.762 80.6879C159.397 85.2974 150.809 90.6829 141.954 95.8079C128.283 99.0579 115.236 108.62 103.423 115.412C70.131 134.547 36.1105 152.469 2.90703 170.855C8.16753 146.339 35.355 135.823 57.074 126.61C74.7665 119.11 92.8085 112.578 107.892 104.771C109.152 106.073 104.569 106.261 104.543 108.131C118.548 100.339 133.506 88.3494 143.074 71.7244C145.621 67.2974 149.345 58.1204 153.684 57.7244C160.032 57.1464 162.97 64.7244 169.319 65.5629C168.663 63.2349 165.746 63.1774 164.293 61.6464C167.564 61.3649 171.215 65.5214 174.902 66.6879C171.944 62.7454 166.699 61.0944 162.059 58.8444C161.673 60.3494 163.215 59.9274 163.736 60.5264C161.866 61.4434 159.553 58.0109 157.033 57.7244C166.34 54.9224 179.116 55.5524 186.631 59.4069C191.225 69.0369 195.527 77.7299 201.71 85.1674C227.21 115.855 279.439 119.485 311.158 143.974H313.949C320.538 150.245 328.756 154.886 332.376 164.136C329.97 163.745 328.949 161.974 326.793 161.334C329.324 165.193 336.605 166.469 334.611 173.094Z" fill="black"/>
</g>
<mask id="mask2_2502_2813" style="mask-type:luminance" maskUnits="userSpaceOnUse" x="0" y="104" width="65" height="72">
<path d="M0 104.25H64.4845V176H0V104.25Z" fill="white"/>
</mask>
<g mask="url(#mask2_2502_2813)">
<path d="M334.078 154.604C328.422 146.156 316.339 140.411 309.505 134.443C301.531 132.646 294.641 128.646 287.729 125.484C280.427 122.141 273.219 119.411 265.948 116.521C243.865 107.745 222.818 97.8125 207.875 82.3595C202.703 77.0105 198.203 70.4325 195.031 64.4375C193.109 60.8025 191.625 54.3025 188.886 52.6775C184.229 49.9015 175.646 52.396 171.016 50.4375C175.349 34.943 158.412 29.375 159.292 16.8335C160.146 4.71397 174.172 4.98449 179.953 11.792C181.833 14.0055 182.964 19.99 188.328 17.9535C190.182 14.7815 186.344 11.2815 184.422 8.98998C182.021 6.13548 179.109 3.26598 175.484 2.27098C166.188 -0.286025 155.255 4.83348 154.266 15.714C152.807 31.7295 168.594 32.573 166.552 50.4375C159.526 52.271 150.958 50.042 147.005 52.6775C144.578 54.297 140.984 64.4065 138.63 68.3595C135.495 73.62 131.287 79.4065 128.021 82.917C110.724 101.516 83.943 108.865 58.7765 119.88C49.761 123.828 40.6095 128.531 31.412 133.323C19.011 139.786 5.30248 146.068 1.26098 158.526C0.17198 161.87 -1.53102 170.172 2.93248 174.208C9.36498 175.964 15.4015 166.833 22.4795 165.245C25.9795 164.464 32.386 165.245 38.115 165.245H57.6565C119.302 165.245 204.766 165.807 279.349 165.807C292.115 165.807 306.604 164.286 316.208 166.365C323.214 167.88 327.891 176.745 336.313 175.885C341.417 168.901 337.625 159.906 334.073 154.604H334.078ZM183.859 13.474C180.703 9.54698 178.057 5.10448 171.573 4.51048C177.656 3.27098 181.828 8.78648 183.859 13.474ZM166.547 3.95349C167.714 3.64099 170.818 3.68749 171.016 3.95349C171.568 4.68249 168.172 4.28148 167.667 4.51048C165.641 5.42198 159.958 7.97398 158.172 10.672C160.052 6.90148 164.328 4.54699 166.547 3.95349ZM157.057 11.792C159.307 12.0105 156.641 15.943 156.5 17.391C159.578 29.4065 170.516 35.9585 169.344 50.4375C166.594 47.974 168.234 46.1515 167.667 43.1565C165.531 31.9115 152.568 26.5 157.057 11.792ZM188.328 54.3545C195.094 67.5575 200.781 78.9275 211.224 88.521C227.714 103.656 256.167 113.177 279.354 123.24C290.042 127.885 297.662 132.016 308.391 136.125C317.891 143.396 329.818 148.24 333.521 161.328C309.255 125.542 243.99 121.396 211.224 93C200.521 83.719 194.094 72.5315 187.214 58.2765C177.917 55.073 163.094 52.9115 153.151 56.594C147.026 58.865 147.021 64.818 143.099 68.917C140.839 68.073 144.74 64.4015 145.333 62.7555C143.599 47.4375 175.073 51.745 188.328 54.3545ZM15.7765 143.406C54.2035 116.87 117.792 110.771 140.865 67.797C142.651 70.1515 139.354 72.646 138.073 75.0785C140.599 74.625 140.922 71.964 141.979 70.0365C131.677 94.87 106.823 104.693 79.995 115.964C67.672 121.135 55.042 126.687 42.021 132.76C27.0575 139.745 10.1255 146.818 4.05248 161.885C3.76098 153.781 10.2505 147.219 15.7765 143.406ZM12.4275 168.047C12.1095 169.042 10.8755 168.125 11.87 168.047C43.5995 150.401 74.547 131.964 106.802 114.844C75.865 133.099 44.3075 150.734 12.4275 168.047ZM167.667 82.917C172.886 84.198 174.891 84.891 182.026 89.6095C187.495 93.224 191.906 95.9065 196.703 98.599C231.448 118.109 268.474 137.917 302.245 159.083C272.771 158.094 235.625 159.01 204.599 159.156L186.568 159.01C144.031 157.891 92.4795 158.297 35.318 157.964C78.667 132.177 124.094 108.479 167.662 82.917H167.667ZM107.359 114.844C111.979 111.635 116.88 108.714 122.438 106.443C120.547 107.953 112.136 112.5 107.359 114.844ZM123.552 105.88C127.87 102.552 132.906 99.9535 138.073 97.4795C133.74 100.792 128.62 103.307 123.552 105.88ZM30.297 163.005C32.9065 163.302 41.292 160.849 44.2555 163.562C40.688 162.917 32.3595 164.437 30.297 163.005ZM44.813 162.448C52.2295 162.818 55.5265 162.698 61.568 163.005C57.438 163.594 48.0265 164.646 44.813 162.448ZM62.6825 163.005H66.037C107.891 162.635 152.63 163.766 195.589 162.448C152.573 162.161 92.891 162.661 30.297 161.328C34.4325 158.417 46.2345 158.844 55.4275 159.083C82.068 159.781 120.245 159.958 157.037 159.578L157.375 159.734L224.724 160.292L224.625 160.125C243.688 160.422 262.38 160.38 278.792 160.203C288.339 160.104 298.547 158.964 307.271 161.885C265.573 163.047 232.932 161.719 196.146 162.443C236.646 163.911 279.557 162.318 310.063 163.562C218.115 164.432 142.188 164.594 62.6825 163.005ZM334.636 173.089C288.99 147.365 243.828 121.156 198.38 95.24H194.474C186.729 89.5625 177.448 85.4325 168.787 80.6775C159.422 85.2865 150.833 90.6775 141.979 95.797C128.307 99.047 115.261 108.609 103.448 115.401C70.1565 134.536 36.136 152.464 2.93248 170.849C8.18798 146.328 35.3755 135.812 57.0995 126.604C74.792 119.104 92.8285 112.568 107.917 104.76C109.177 106.062 104.594 106.25 104.568 108.12C118.573 100.328 133.531 88.339 143.099 71.719C145.646 67.2865 149.37 58.1095 153.708 57.714C160.057 57.1355 162.995 64.719 169.344 65.5575C168.688 63.2295 165.771 63.167 164.318 61.6355C167.589 61.3545 171.24 65.516 174.927 66.6775C171.969 62.74 166.724 61.089 162.083 58.8335C161.698 60.344 163.24 59.917 163.761 60.516C161.891 61.4375 159.578 58.0055 157.057 57.714C166.359 54.9115 179.141 55.547 186.656 59.396C191.25 69.0265 195.552 77.719 201.729 85.1565C227.229 115.849 279.458 119.479 311.182 143.964H313.974C320.557 150.24 328.781 154.875 332.401 164.125C329.995 163.74 328.974 161.964 326.818 161.328C329.349 165.187 336.63 166.458 334.636 173.089Z" fill="black"/>
</g>
<path d="M272.276 164.714V158.51" stroke="#EAEAEA"/>
<path d="M64.9735 164.714V157.766" stroke="#EAEAEA"/>
<path d="M107.265 191.702C107.015 191.618 106.817 191.577 106.682 191.577C106.474 191.577 106.307 191.592 106.182 191.618C106.057 191.634 105.984 191.634 105.974 191.618C105.958 191.592 105.953 191.556 105.953 191.514C105.953 191.473 105.963 191.431 105.994 191.389C106.02 191.348 106.057 191.327 106.099 191.327C106.682 191.191 107.479 191.118 108.494 191.118L111.432 195.931H111.494L114.307 191.118C115.307 191.118 116.099 191.191 116.682 191.327C116.776 191.342 116.828 191.41 116.828 191.535C116.828 191.608 116.765 191.634 116.64 191.618C116.515 191.592 116.349 191.577 116.14 191.577C115.932 191.577 115.708 191.629 115.474 191.723L116.599 199.723C116.651 200.139 116.776 200.4 116.974 200.493C117.026 200.509 117.057 200.556 117.057 200.639C117.057 200.712 117.026 200.743 116.974 200.743H115.036C114.979 200.743 114.953 200.712 114.953 200.639C114.953 200.572 114.958 200.53 114.974 200.514C115 200.504 115.026 200.488 115.057 200.473C115.151 200.431 115.234 200.322 115.307 200.139C115.39 199.947 115.432 199.816 115.432 199.743C115.432 199.676 115.432 199.634 115.432 199.618L114.494 192.66H114.453L111.557 197.723C111.541 197.738 111.474 197.743 111.349 197.743C111.224 197.733 111.151 197.723 111.14 197.723L108.119 192.66H108.078L107.203 199.618C107.187 199.743 107.213 199.889 107.286 200.056C107.354 200.223 107.411 200.337 107.453 200.389C107.505 200.431 107.557 200.467 107.599 200.493C107.651 200.509 107.682 200.556 107.682 200.639C107.682 200.712 107.651 200.743 107.599 200.743H105.828C105.77 200.743 105.744 200.712 105.744 200.639C105.744 200.572 105.75 200.53 105.765 200.514C105.791 200.504 105.817 200.488 105.849 200.473C106.026 200.389 106.145 200.139 106.203 199.723L107.265 191.702Z" fill="black"/>
<path d="M120.167 196.077C119.917 196.233 119.729 196.442 119.604 196.702C119.49 196.968 119.437 197.301 119.437 197.702C119.437 198.093 119.547 198.489 119.771 198.89C119.99 199.296 120.292 199.614 120.667 199.848C121.052 200.072 121.437 200.181 121.812 200.181C122.198 200.181 122.51 200.098 122.75 199.931C123 199.754 123.187 199.53 123.312 199.265C123.437 198.989 123.5 198.681 123.5 198.348C123.5 197.655 123.276 197.067 122.833 196.577C122.401 196.077 121.812 195.827 121.062 195.827C120.729 195.827 120.427 195.91 120.167 196.077ZM119.458 200.035C119.193 199.785 118.979 199.489 118.812 199.14C118.656 198.78 118.583 198.364 118.583 197.89C118.583 197.405 118.708 196.942 118.958 196.494C119.208 196.035 119.562 195.681 120.021 195.431C120.479 195.171 120.958 195.035 121.458 195.035C122.359 195.035 123.073 195.322 123.604 195.89C124.146 196.462 124.417 197.155 124.417 197.973C124.427 198.78 124.151 199.462 123.583 200.015C123.01 200.572 122.297 200.848 121.437 200.848C121.062 200.848 120.698 200.775 120.354 200.64C120.021 200.489 119.719 200.285 119.458 200.035Z" fill="black"/>
<path d="M129.41 192.118V192.013C129.41 192.003 129.421 191.987 129.452 191.972C129.478 191.961 129.494 191.951 129.494 191.951L130.535 191.159C130.561 191.149 130.603 191.138 130.66 191.138C130.728 191.138 130.775 191.154 130.806 191.18C130.848 191.196 130.869 191.243 130.869 191.326C130.869 194.842 130.874 197.566 130.89 199.493C130.9 199.566 130.895 199.592 130.869 199.576C130.869 199.576 130.874 199.592 130.89 199.618C130.916 199.633 130.962 199.649 131.035 199.659C131.103 199.659 131.15 199.67 131.181 199.68C131.207 199.696 131.223 199.743 131.223 199.826C131.223 199.899 131.207 199.941 131.181 199.951L130.223 200.743C130.207 200.753 130.16 200.763 130.077 200.763C129.994 200.763 129.936 200.753 129.91 200.743C129.895 200.717 129.89 200.691 129.89 200.659C129.89 200.633 129.89 200.607 129.89 200.576C129.9 200.534 129.9 200.487 129.89 200.43C129.874 200.378 129.858 200.347 129.848 200.347C129.832 200.347 129.796 200.362 129.744 200.388L129.598 200.493C129.192 200.732 128.785 200.847 128.369 200.847C127.962 200.847 127.587 200.774 127.244 200.638C126.91 200.487 126.608 200.284 126.348 200.034C126.082 199.784 125.869 199.487 125.702 199.138C125.546 198.779 125.473 198.362 125.473 197.888C125.473 197.404 125.598 196.941 125.848 196.493C126.098 196.034 126.452 195.68 126.91 195.43C127.369 195.17 127.9 195.034 128.515 195.034C128.749 195.034 128.999 195.097 129.265 195.222C129.525 195.336 129.728 195.451 129.869 195.576H129.931C129.931 194.316 129.921 193.321 129.91 192.597C129.91 192.472 129.874 192.383 129.806 192.326C129.749 192.274 129.681 192.243 129.598 192.243C129.525 192.243 129.483 192.232 129.473 192.201C129.431 192.191 129.41 192.159 129.41 192.118ZM129.89 199.409L129.91 196.868C129.728 196.534 129.462 196.279 129.119 196.097C128.77 195.92 128.379 195.826 127.952 195.826C127.395 195.826 126.942 196.118 126.598 196.701C126.416 197.008 126.327 197.3 126.327 197.576C126.327 198.3 126.546 198.888 126.994 199.347C127.452 199.795 128.035 200.013 128.744 200.013C128.936 200.013 129.14 199.961 129.348 199.847C129.567 199.722 129.749 199.576 129.89 199.409Z" fill="black"/>
<path d="M136.505 196.681C136.266 196.015 135.766 195.681 135.005 195.681C134.656 195.681 134.338 195.78 134.047 195.973C133.755 196.155 133.531 196.39 133.38 196.681C133.224 196.962 133.151 197.233 133.151 197.494C133.151 197.744 133.156 197.864 133.172 197.848L136.484 196.702V196.66L136.505 196.681ZM133.297 198.473C133.463 198.931 133.745 199.296 134.151 199.556C134.552 199.822 135.005 199.952 135.505 199.952C136.156 199.952 136.745 199.65 137.276 199.035C137.36 198.968 137.474 199.009 137.63 199.16C137.641 199.176 137.641 199.197 137.63 199.223C137.183 199.837 136.839 200.233 136.589 200.41C136.172 200.702 135.693 200.848 135.151 200.848C134.776 200.848 134.412 200.77 134.068 200.619C133.36 200.317 132.849 199.817 132.547 199.119C132.38 198.775 132.297 198.364 132.297 197.89C132.297 197.405 132.422 196.942 132.672 196.494C132.922 196.035 133.276 195.681 133.734 195.431C134.192 195.171 134.724 195.035 135.339 195.035C136.058 195.035 136.713 195.379 137.297 196.056C137.573 196.405 137.714 196.676 137.714 196.869L133.297 198.473Z" fill="black"/>
<path d="M139.029 196.139L139.049 196.035C139.049 196.009 139.055 195.988 139.07 195.973C139.096 195.962 139.112 195.952 139.112 195.952L140.174 195.181C140.185 195.17 140.226 195.16 140.299 195.16C140.367 195.16 140.414 195.17 140.445 195.181C140.471 195.197 140.487 195.254 140.487 195.348V196.348C140.513 196.306 140.549 196.264 140.591 196.223C140.867 195.879 141.159 195.608 141.466 195.41C141.768 195.217 142.117 195.118 142.508 195.118C142.633 195.118 142.7 195.134 142.716 195.16C142.784 195.342 142.841 195.514 142.883 195.681L143.049 196.368C143.06 196.41 143.034 196.452 142.966 196.493C142.893 196.535 142.841 196.556 142.799 196.556C142.758 196.545 142.716 196.504 142.674 196.431L142.612 196.327C142.404 196.134 142.159 196.056 141.883 196.098C141.601 196.139 141.341 196.243 141.091 196.41C140.841 196.577 140.654 196.754 140.529 196.931C140.529 196.947 140.518 196.967 140.508 196.993C140.492 197.009 140.487 197.025 140.487 197.035V199.723C140.487 199.738 140.487 199.78 140.487 199.848C140.487 199.905 140.487 199.947 140.487 199.973C140.513 200.223 140.596 200.379 140.737 200.431C140.872 200.488 140.945 200.535 140.945 200.577C140.945 200.691 140.924 200.743 140.883 200.743H139.133C139.091 200.743 139.07 200.712 139.07 200.639C139.07 200.572 139.081 200.53 139.112 200.514C139.138 200.488 139.174 200.467 139.216 200.452C139.268 200.426 139.31 200.4 139.341 200.368C139.393 200.316 139.435 200.254 139.466 200.181C139.508 200.098 139.529 200.009 139.529 199.91C139.529 199.801 139.529 199.738 139.529 199.723V196.618C139.529 196.493 139.492 196.405 139.424 196.348C139.367 196.295 139.305 196.264 139.237 196.264C139.164 196.264 139.117 196.254 139.091 196.223C139.049 196.197 139.029 196.17 139.029 196.139Z" fill="black"/>
<path d="M144.182 200.744C144.124 200.744 144.098 200.712 144.098 200.64C144.098 200.572 144.109 200.53 144.14 200.515C144.182 200.489 144.223 200.468 144.265 200.452C144.317 200.426 144.359 200.4 144.39 200.369C144.515 200.259 144.567 200.129 144.557 199.973C144.557 199.822 144.557 199.739 144.557 199.723V196.619C144.557 196.494 144.52 196.405 144.452 196.348C144.395 196.296 144.333 196.265 144.265 196.265C144.192 196.265 144.145 196.259 144.119 196.244C144.103 196.218 144.088 196.197 144.077 196.181C144.077 196.171 144.077 196.155 144.077 196.14C144.077 196.129 144.077 196.114 144.077 196.098C144.077 196.072 144.077 196.051 144.077 196.035C144.077 196.025 144.077 196.015 144.077 196.015C144.088 196.004 144.103 195.989 144.119 195.973C144.129 195.962 144.145 195.952 144.161 195.952L145.202 195.181C145.213 195.171 145.254 195.16 145.327 195.16C145.395 195.16 145.442 195.171 145.473 195.181C145.515 195.197 145.536 195.254 145.536 195.348V195.765L145.827 195.598L146.015 195.515C146.557 195.239 147.062 195.098 147.536 195.098C148.004 195.098 148.473 195.265 148.932 195.598C149.14 195.754 149.307 195.942 149.432 196.16C149.567 196.384 149.64 196.608 149.64 196.827V199.973C149.64 200.056 149.661 200.15 149.702 200.244C149.744 200.343 149.812 200.41 149.911 200.452C150.02 200.494 150.077 200.535 150.077 200.577C150.077 200.692 150.057 200.744 150.015 200.744H148.286C148.244 200.744 148.223 200.712 148.223 200.64C148.223 200.572 148.234 200.53 148.265 200.515C148.307 200.489 148.348 200.468 148.39 200.452C148.442 200.426 148.484 200.4 148.515 200.369C148.541 200.343 148.567 200.306 148.598 200.265C148.624 200.223 148.64 200.181 148.64 200.14C148.65 200.087 148.661 200.046 148.661 200.015C148.661 199.989 148.661 199.942 148.661 199.869C148.661 199.785 148.661 199.739 148.661 199.723V196.973C148.661 196.754 148.583 196.551 148.432 196.369C148.124 196.035 147.702 195.869 147.161 195.869C146.619 195.869 146.077 196.009 145.536 196.285V199.973C145.536 200.056 145.557 200.15 145.598 200.244C145.64 200.343 145.713 200.41 145.827 200.452C145.937 200.494 145.994 200.535 145.994 200.577C145.994 200.692 145.963 200.744 145.911 200.744H144.182Z" fill="black"/>
<path d="M159.719 200.077C160.594 200.077 161.376 199.884 162.074 199.494C162.782 199.093 163.355 198.551 163.803 197.869C163.855 197.785 163.891 197.765 163.907 197.806C163.933 197.837 163.969 197.879 164.011 197.931L164.199 198.181C164.251 198.28 164.272 198.343 164.261 198.369C164.022 198.843 163.626 199.306 163.074 199.765C162.058 200.629 160.938 201.056 159.719 201.056C158.996 201.056 158.324 200.916 157.699 200.64C157.084 200.364 156.563 199.994 156.136 199.535C155.719 199.077 155.386 198.535 155.136 197.91C154.897 197.285 154.782 196.65 154.782 195.994C154.782 195.327 154.907 194.692 155.157 194.077C155.417 193.468 155.772 192.942 156.219 192.494C156.662 192.051 157.183 191.697 157.782 191.431C158.391 191.171 159.011 191.035 159.636 191.035C160.371 191.035 161.105 191.176 161.844 191.452L162.115 191.556C162.157 191.572 162.209 191.556 162.282 191.515C162.35 191.473 162.417 191.452 162.49 191.452C162.574 191.452 162.636 191.489 162.678 191.556C162.704 191.572 162.709 191.614 162.699 191.681C162.699 191.796 162.746 192.051 162.844 192.452L162.99 193.098C163.032 193.265 163.053 193.379 163.053 193.431C163.053 193.447 163.001 193.483 162.907 193.535C162.808 193.577 162.746 193.587 162.719 193.556C162.397 193.004 161.996 192.619 161.511 192.41C161.022 192.192 160.412 192.077 159.678 192.077C158.938 192.077 158.272 192.244 157.678 192.577C157.094 192.91 156.641 193.379 156.324 193.973C156.001 194.556 155.844 195.223 155.844 195.973C155.844 196.462 155.954 196.952 156.178 197.452C156.412 197.952 156.704 198.4 157.053 198.785C157.412 199.16 157.829 199.473 158.303 199.723C158.772 199.962 159.246 200.077 159.719 200.077Z" fill="black"/>
<path d="M165.619 192.118L165.64 192.013C165.64 192.003 165.645 191.987 165.661 191.972C165.687 191.961 165.703 191.951 165.703 191.951L166.765 191.159C166.776 191.149 166.796 191.138 166.828 191.138C166.994 191.138 167.078 191.201 167.078 191.326V199.722C167.078 199.753 167.078 199.795 167.078 199.847C167.078 199.904 167.078 199.946 167.078 199.972C167.088 200.222 167.166 200.378 167.307 200.43C167.458 200.487 167.536 200.534 167.536 200.576C167.536 200.691 167.505 200.743 167.453 200.743H165.724C165.682 200.743 165.661 200.711 165.661 200.638C165.661 200.571 165.671 200.529 165.703 200.513C165.729 200.487 165.765 200.467 165.807 200.451C165.859 200.425 165.901 200.399 165.932 200.368C165.974 200.342 166 200.316 166.015 200.284C166.041 200.243 166.062 200.211 166.078 200.18C166.088 200.154 166.099 200.118 166.099 200.076C166.109 200.024 166.119 199.987 166.119 199.972V192.597C166.119 192.472 166.083 192.383 166.015 192.326C165.958 192.274 165.895 192.243 165.828 192.243C165.755 192.243 165.708 192.232 165.682 192.201C165.64 192.191 165.619 192.159 165.619 192.118Z" fill="black"/>
<path d="M170.498 196.077C170.248 196.233 170.061 196.442 169.936 196.702C169.821 196.968 169.769 197.301 169.769 197.702C169.769 198.093 169.878 198.489 170.102 198.89C170.321 199.296 170.623 199.614 170.998 199.848C171.384 200.072 171.769 200.181 172.144 200.181C172.529 200.181 172.842 200.098 173.081 199.931C173.331 199.754 173.519 199.53 173.644 199.265C173.769 198.989 173.831 198.681 173.831 198.348C173.831 197.655 173.607 197.067 173.165 196.577C172.732 196.077 172.144 195.827 171.394 195.827C171.061 195.827 170.759 195.91 170.498 196.077ZM169.79 200.035C169.524 199.785 169.311 199.489 169.144 199.14C168.988 198.78 168.915 198.364 168.915 197.89C168.915 197.405 169.04 196.942 169.29 196.494C169.54 196.035 169.894 195.681 170.352 195.431C170.811 195.171 171.29 195.035 171.79 195.035C172.691 195.035 173.404 195.322 173.936 195.89C174.477 196.462 174.748 197.155 174.748 197.973C174.759 198.78 174.482 199.462 173.915 200.015C173.342 200.572 172.628 200.848 171.769 200.848C171.394 200.848 171.029 200.775 170.686 200.64C170.352 200.489 170.05 200.285 169.79 200.035Z" fill="black"/>
<path d="M176.763 194.118C176.773 194.035 176.846 193.993 176.971 193.993C177.107 193.993 177.18 194.035 177.18 194.118V195.16H178.221C178.414 195.16 178.513 195.191 178.513 195.243V195.743C178.513 195.801 178.414 195.827 178.221 195.827H177.18V199.473C177.18 199.931 177.315 200.191 177.596 200.243C177.805 200.285 178.018 200.212 178.242 200.014C178.325 199.931 178.378 199.91 178.409 199.952C178.45 199.993 178.476 200.03 178.492 200.056C178.518 200.072 178.534 200.092 178.534 200.118C178.534 200.15 178.534 200.16 178.534 200.16C178.534 200.191 178.513 200.223 178.471 200.264L178.346 200.368C177.93 200.733 177.523 200.889 177.138 200.848C176.763 200.816 176.497 200.598 176.346 200.181C176.263 199.962 176.221 199.681 176.221 199.348V195.827H175.95C175.742 195.827 175.638 195.801 175.638 195.743V195.243C175.638 195.191 175.721 195.16 175.888 195.16C176.18 195.16 176.388 195.066 176.513 194.868C176.638 194.66 176.721 194.41 176.763 194.118Z" fill="black"/>
<path d="M179.572 192.118L179.592 192.013C179.592 192.003 179.613 191.982 179.655 191.951L180.717 191.159C180.728 191.149 180.769 191.138 180.842 191.138C180.91 191.138 180.957 191.154 180.988 191.18C181.014 191.196 181.03 191.243 181.03 191.326V195.763C181.155 195.696 181.249 195.638 181.322 195.597L181.509 195.513C182.061 195.237 182.572 195.097 183.03 195.097C183.499 195.097 183.967 195.263 184.426 195.597C184.634 195.753 184.801 195.941 184.926 196.159C185.061 196.383 185.134 196.607 185.134 196.826V199.722C185.134 199.737 185.134 199.779 185.134 199.847C185.134 199.904 185.134 199.946 185.134 199.972C185.16 200.222 185.243 200.378 185.384 200.43C185.519 200.487 185.592 200.534 185.592 200.576C185.592 200.691 185.561 200.743 185.509 200.743H183.78C183.738 200.743 183.717 200.711 183.717 200.638C183.717 200.571 183.728 200.529 183.759 200.513C183.785 200.487 183.827 200.467 183.884 200.451C183.936 200.425 183.978 200.399 184.009 200.368C184.035 200.342 184.061 200.305 184.092 200.263C184.118 200.222 184.134 200.18 184.134 200.138C184.144 200.086 184.155 200.045 184.155 200.013C184.155 199.987 184.155 199.941 184.155 199.868C184.155 199.784 184.155 199.737 184.155 199.722V196.972C184.155 196.737 184.077 196.534 183.926 196.368C183.618 196.034 183.197 195.868 182.655 195.868C182.113 195.868 181.572 196.008 181.03 196.284V199.722C181.03 199.737 181.03 199.779 181.03 199.847C181.03 199.904 181.03 199.946 181.03 199.972C181.056 200.222 181.139 200.378 181.28 200.43C181.415 200.487 181.488 200.534 181.488 200.576C181.488 200.691 181.457 200.743 181.405 200.743H179.676C179.634 200.743 179.613 200.711 179.613 200.638C179.613 200.571 179.624 200.529 179.655 200.513C179.681 200.487 179.717 200.467 179.759 200.451C179.811 200.425 179.853 200.399 179.884 200.368C180.009 200.258 180.072 200.128 180.072 199.972C180.072 199.821 180.072 199.737 180.072 199.722V192.597C180.072 192.472 180.035 192.383 179.967 192.326C179.91 192.274 179.848 192.243 179.78 192.243C179.707 192.243 179.66 192.232 179.634 192.201C179.592 192.191 179.572 192.159 179.572 192.118Z" fill="black"/>
<path d="M188.427 192.243V192.722C188.427 192.753 188.412 192.779 188.386 192.805C188.37 192.821 188.287 192.857 188.136 192.91C187.995 192.967 187.891 193.014 187.823 193.055C187.75 193.087 187.688 193.107 187.636 193.118C187.594 193.133 187.563 193.133 187.552 193.118C187.537 193.107 187.532 193.029 187.532 192.889V192.326C187.532 192.326 187.532 192.316 187.532 192.285C187.532 192.258 187.532 192.243 187.532 192.243C187.532 192.232 187.532 192.217 187.532 192.201C187.532 192.191 187.537 192.175 187.552 192.16C187.579 192.149 187.662 192.113 187.802 192.055C187.954 192.003 188.063 191.951 188.136 191.91C188.287 191.842 188.37 191.816 188.386 191.826C188.412 191.842 188.427 191.982 188.427 192.243ZM187.095 200.743C187.037 200.743 187.011 200.712 187.011 200.639C187.011 200.571 187.021 200.529 187.052 200.514C187.094 200.488 187.136 200.467 187.177 200.451C187.37 200.368 187.47 200.18 187.47 199.889V196.618C187.47 196.493 187.433 196.404 187.365 196.347C187.308 196.295 187.245 196.264 187.177 196.264C187.105 196.264 187.058 196.258 187.032 196.243C187.001 196.217 186.99 196.175 186.99 196.118C186.99 196.05 186.99 196.014 186.99 196.014C187 196.003 187.017 195.988 187.032 195.972C187.043 195.962 187.058 195.951 187.073 195.951L188.115 195.18C188.141 195.154 188.162 195.149 188.177 195.16C188.204 195.175 188.25 195.196 188.323 195.222C188.407 195.238 188.448 195.279 188.448 195.347V199.91C188.448 200.191 188.542 200.368 188.74 200.451C188.849 200.493 188.907 200.535 188.907 200.576C188.907 200.691 188.875 200.743 188.823 200.743H187.095Z" fill="black"/>
<path d="M190.466 200.744C190.408 200.744 190.382 200.712 190.382 200.64C190.382 200.572 190.393 200.53 190.424 200.515C190.466 200.489 190.507 200.468 190.549 200.452C190.601 200.426 190.643 200.4 190.674 200.369C190.799 200.259 190.851 200.129 190.841 199.973C190.841 199.822 190.841 199.739 190.841 199.723V196.619C190.841 196.494 190.804 196.405 190.737 196.348C190.679 196.296 190.617 196.265 190.549 196.265C190.476 196.265 190.429 196.259 190.403 196.244C190.388 196.218 190.372 196.197 190.362 196.181C190.362 196.171 190.362 196.155 190.362 196.14C190.362 196.129 190.362 196.114 190.362 196.098C190.362 196.072 190.362 196.051 190.362 196.035C190.362 196.025 190.362 196.015 190.362 196.015C190.372 196.004 190.388 195.989 190.403 195.973C190.414 195.962 190.429 195.952 190.444 195.952L191.487 195.181C191.497 195.171 191.539 195.16 191.612 195.16C191.679 195.16 191.726 195.171 191.757 195.181C191.799 195.197 191.819 195.254 191.819 195.348V195.765L192.112 195.598L192.299 195.515C192.841 195.239 193.345 195.098 193.819 195.098C194.288 195.098 194.757 195.265 195.216 195.598C195.424 195.754 195.591 195.942 195.716 196.16C195.851 196.384 195.924 196.608 195.924 196.827V199.973C195.924 200.056 195.945 200.15 195.987 200.244C196.028 200.343 196.095 200.41 196.194 200.452C196.304 200.494 196.362 200.535 196.362 200.577C196.362 200.692 196.341 200.744 196.299 200.744H194.569C194.528 200.744 194.507 200.712 194.507 200.64C194.507 200.572 194.518 200.53 194.549 200.515C194.591 200.489 194.632 200.468 194.674 200.452C194.726 200.426 194.768 200.4 194.799 200.369C194.825 200.343 194.851 200.306 194.882 200.265C194.908 200.223 194.924 200.181 194.924 200.14C194.934 200.087 194.944 200.046 194.944 200.015C194.944 199.989 194.944 199.942 194.944 199.869C194.944 199.785 194.944 199.739 194.944 199.723V196.973C194.944 196.754 194.867 196.551 194.716 196.369C194.408 196.035 193.986 195.869 193.444 195.869C192.903 195.869 192.361 196.009 191.819 196.285V199.973C191.819 200.056 191.84 200.15 191.882 200.244C191.924 200.343 191.997 200.41 192.112 200.452C192.221 200.494 192.278 200.535 192.278 200.577C192.278 200.692 192.246 200.744 192.194 200.744H190.466Z" fill="black"/>
<path d="M198.875 199.181C198.75 199.223 198.77 199.306 198.937 199.431C199.114 199.545 199.385 199.639 199.75 199.723C200.125 199.806 200.437 199.868 200.687 199.91C200.948 199.952 201.218 200.014 201.5 200.098C201.791 200.181 202.031 200.28 202.229 200.389C202.437 200.488 202.609 200.629 202.75 200.806C202.885 200.999 202.958 201.223 202.958 201.473C202.958 201.723 202.895 201.952 202.77 202.16C202.395 202.827 201.489 203.16 200.062 203.16C199.406 203.16 198.817 202.999 198.291 202.681C197.776 202.374 197.463 201.936 197.354 201.368V201.285C197.354 201.254 197.354 201.233 197.354 201.223L198.354 200.348C198.395 200.348 198.437 200.379 198.479 200.431C198.531 200.488 198.562 200.53 198.562 200.556C198.562 200.587 198.526 200.634 198.458 200.702C198.401 200.754 198.375 200.92 198.375 201.202C198.375 201.493 198.489 201.749 198.729 201.973C198.963 202.207 199.239 202.368 199.562 202.452C200.255 202.561 200.854 202.525 201.354 202.348C201.52 202.275 201.656 202.17 201.77 202.035C201.88 201.894 201.937 201.749 201.937 201.598C201.937 201.441 201.859 201.316 201.708 201.223C201.484 201.098 200.942 200.936 200.083 200.743C199.218 200.535 198.583 200.342 198.166 200.16C198.067 200.118 198.02 200.092 198.02 200.077C198.02 200.051 198.073 199.926 198.187 199.702C198.312 199.483 198.448 199.259 198.604 199.035C198.338 198.842 198.125 198.598 197.958 198.306C197.791 198.004 197.708 197.681 197.708 197.348C197.708 196.681 197.916 196.15 198.333 195.743C198.75 195.327 199.26 195.118 199.875 195.118C200.484 195.118 200.989 195.316 201.395 195.702L201.416 195.681C201.567 195.363 201.645 195.197 201.645 195.181C201.656 195.17 201.671 195.16 201.687 195.16H202.666C202.692 195.16 202.718 195.191 202.75 195.243C202.776 195.301 202.781 195.337 202.77 195.348C202.671 195.389 202.562 195.441 202.437 195.493C202.171 195.608 201.948 195.842 201.77 196.202C201.948 196.535 202.041 196.889 202.041 197.264C202.041 197.879 201.833 198.389 201.416 198.806C201 199.223 200.463 199.431 199.812 199.431C199.489 199.431 199.177 199.348 198.875 199.181ZM199.541 195.827C198.791 195.827 198.416 196.238 198.416 197.056C198.416 197.53 198.593 197.931 198.958 198.264C199.317 198.587 199.708 198.743 200.125 198.743C200.552 198.743 200.854 198.655 201.02 198.473C201.198 198.28 201.291 197.962 201.291 197.514C201.291 197.072 201.125 196.681 200.791 196.348C200.458 196.004 200.041 195.827 199.541 195.827Z" fill="black"/>
<path d="M208.939 200.681C208.824 200.655 208.699 200.618 208.564 200.577C208.423 200.525 208.335 200.493 208.293 200.493H208.21C208.069 200.493 207.965 200.572 207.897 200.723C207.897 200.738 207.897 200.743 207.897 200.743H207.71C207.694 200.743 207.679 200.738 207.668 200.723L207.168 198.993C207.152 198.91 207.215 198.868 207.356 198.868C207.408 198.868 207.444 198.884 207.46 198.91C207.47 198.926 207.486 198.941 207.501 198.952C207.512 198.952 207.533 198.973 207.564 199.014C208.074 199.655 208.824 199.973 209.814 199.973C210.34 199.973 210.777 199.837 211.126 199.556C211.47 199.28 211.647 198.879 211.647 198.348C211.647 197.988 211.585 197.717 211.46 197.535C211.345 197.358 211.257 197.223 211.189 197.139C211.033 196.947 210.658 196.681 210.064 196.348C209.465 196.014 208.986 195.717 208.626 195.452C207.694 194.775 207.231 194.077 207.231 193.368C207.231 192.65 207.449 192.092 207.897 191.702C208.34 191.316 208.929 191.118 209.668 191.118C210.085 191.118 210.522 191.233 210.981 191.452C211.199 191.566 211.361 191.639 211.46 191.681C211.554 191.712 211.626 191.691 211.668 191.618C211.71 191.535 211.736 191.493 211.751 191.493C211.918 191.467 212.001 191.493 212.001 191.577L212.189 193.452C212.189 193.483 212.095 193.493 211.918 193.493C211.887 193.493 211.861 193.462 211.835 193.389C211.72 193.004 211.444 192.676 211.001 192.41C210.554 192.15 210.111 192.014 209.668 192.014C208.71 192.014 208.231 192.405 208.231 193.181C208.231 193.754 208.741 194.316 209.772 194.868L210.897 195.473C211.574 195.848 212.048 196.259 212.314 196.702C212.59 197.134 212.731 197.598 212.731 198.098V198.16C212.632 198.842 212.522 199.301 212.397 199.535C212.158 199.941 211.835 200.259 211.418 200.493C211.001 200.733 210.527 200.848 210.001 200.848C209.71 200.848 209.465 200.816 209.272 200.764L208.939 200.681Z" fill="black"/>
<path d="M214.662 194.118C214.672 194.035 214.746 193.993 214.871 193.993C215.006 193.993 215.079 194.035 215.079 194.118V195.16H216.121C216.313 195.16 216.412 195.191 216.412 195.243V195.743C216.412 195.801 216.313 195.827 216.121 195.827H215.079V199.473C215.079 199.931 215.214 200.191 215.496 200.243C215.704 200.285 215.918 200.212 216.142 200.014C216.225 199.931 216.277 199.91 216.308 199.952C216.35 199.993 216.376 200.03 216.392 200.056C216.418 200.072 216.433 200.092 216.433 200.118C216.433 200.15 216.433 200.16 216.433 200.16C216.433 200.191 216.412 200.223 216.371 200.264L216.246 200.368C215.829 200.733 215.422 200.889 215.037 200.848C214.662 200.816 214.397 200.598 214.246 200.181C214.162 199.962 214.121 199.681 214.121 199.348V195.827H213.849C213.641 195.827 213.537 195.801 213.537 195.743V195.243C213.537 195.191 213.62 195.16 213.787 195.16C214.079 195.16 214.287 195.066 214.412 194.868C214.537 194.66 214.62 194.41 214.662 194.118Z" fill="black"/>
<path d="M218.826 196.077C218.576 196.233 218.388 196.442 218.263 196.702C218.149 196.968 218.096 197.301 218.096 197.702C218.096 198.093 218.206 198.489 218.43 198.89C218.649 199.296 218.951 199.614 219.326 199.848C219.711 200.072 220.096 200.181 220.471 200.181C220.857 200.181 221.169 200.098 221.409 199.931C221.659 199.754 221.846 199.53 221.971 199.265C222.096 198.989 222.159 198.681 222.159 198.348C222.159 197.655 221.935 197.067 221.492 196.577C221.06 196.077 220.471 195.827 219.721 195.827C219.388 195.827 219.086 195.91 218.826 196.077ZM218.117 200.035C217.852 199.785 217.638 199.489 217.471 199.14C217.315 198.78 217.242 198.364 217.242 197.89C217.242 197.405 217.367 196.942 217.617 196.494C217.867 196.035 218.222 195.681 218.68 195.431C219.138 195.171 219.617 195.035 220.117 195.035C221.018 195.035 221.732 195.322 222.263 195.89C222.805 196.462 223.076 197.155 223.076 197.973C223.086 198.78 222.81 199.462 222.242 200.015C221.67 200.572 220.955 200.848 220.096 200.848C219.721 200.848 219.357 200.775 219.013 200.64C218.68 200.489 218.378 200.285 218.117 200.035Z" fill="black"/>
<path d="M224.318 196.139L224.339 196.035C224.339 196.009 224.344 195.988 224.36 195.973C224.386 195.962 224.401 195.952 224.401 195.952L225.464 195.181C225.474 195.17 225.516 195.16 225.589 195.16C225.657 195.16 225.704 195.17 225.735 195.181C225.761 195.197 225.776 195.254 225.776 195.348V196.348C225.802 196.306 225.839 196.264 225.881 196.223C226.157 195.879 226.448 195.608 226.756 195.41C227.058 195.217 227.407 195.118 227.797 195.118C227.922 195.118 227.99 195.134 228.006 195.16C228.073 195.342 228.131 195.514 228.172 195.681L228.339 196.368C228.349 196.41 228.323 196.452 228.256 196.493C228.183 196.535 228.131 196.556 228.089 196.556C228.047 196.545 228.006 196.504 227.964 196.431L227.901 196.327C227.693 196.134 227.448 196.056 227.172 196.098C226.891 196.139 226.631 196.243 226.381 196.41C226.131 196.577 225.943 196.754 225.818 196.931C225.818 196.947 225.808 196.967 225.797 196.993C225.782 197.009 225.776 197.025 225.776 197.035V199.723C225.776 199.738 225.776 199.78 225.776 199.848C225.776 199.905 225.776 199.947 225.776 199.973C225.802 200.223 225.886 200.379 226.026 200.431C226.162 200.488 226.235 200.535 226.235 200.577C226.235 200.691 226.214 200.743 226.172 200.743H224.422C224.381 200.743 224.36 200.712 224.36 200.639C224.36 200.572 224.37 200.53 224.401 200.514C224.427 200.488 224.464 200.467 224.506 200.452C224.558 200.426 224.599 200.4 224.631 200.368C224.683 200.316 224.724 200.254 224.756 200.181C224.797 200.098 224.818 200.009 224.818 199.91C224.818 199.801 224.818 199.738 224.818 199.723V196.618C224.818 196.493 224.782 196.405 224.714 196.348C224.657 196.295 224.594 196.264 224.526 196.264C224.454 196.264 224.407 196.254 224.381 196.223C224.339 196.197 224.318 196.17 224.318 196.139Z" fill="black"/>
<path d="M233.388 196.681C233.149 196.015 232.649 195.681 231.888 195.681C231.539 195.681 231.222 195.78 230.93 195.973C230.638 196.155 230.414 196.39 230.263 196.681C230.107 196.962 230.034 197.233 230.034 197.494C230.034 197.744 230.039 197.864 230.055 197.848L233.367 196.702V196.66L233.388 196.681ZM230.18 198.473C230.347 198.931 230.627 199.296 231.034 199.556C231.435 199.822 231.888 199.952 232.388 199.952C233.039 199.952 233.627 199.65 234.159 199.035C234.242 198.968 234.357 199.009 234.513 199.16C234.524 199.176 234.524 199.197 234.513 199.223C234.065 199.837 233.721 200.233 233.471 200.41C233.054 200.702 232.575 200.848 232.034 200.848C231.659 200.848 231.295 200.77 230.951 200.619C230.242 200.317 229.732 199.817 229.43 199.119C229.263 198.775 229.18 198.364 229.18 197.89C229.18 197.405 229.305 196.942 229.555 196.494C229.805 196.035 230.159 195.681 230.617 195.431C231.076 195.171 231.607 195.035 232.221 195.035C232.94 195.035 233.597 195.379 234.18 196.056C234.456 196.405 234.596 196.676 234.596 196.869L230.18 198.473Z" fill="black"/>
</svg>
